<?xml version="1.0" standalone="no"?>
<!DOCTYPE svg PUBLIC "-//W3C//DTD SVG 20010904//EN"
 "http://www.w3.org/TR/2001/REC-SVG-20010904/DTD/svg10.dtd">
<svg version="1.0" xmlns="http://www.w3.org/2000/svg"
 width="455.000000pt" height="455.000000pt" viewBox="0 0 455.000000 455.000000"
 preserveAspectRatio="xMidYMid meet">
<metadata>
Created by potrace 1.11, written by Peter Selinger 2001-2013
</metadata>
<g transform="translate(0.000000,455.000000) scale(0.100000,-0.100000)"
fill="#000000" stroke="none">
<path d="M1875 4526 c-222 -62 -323 -189 -224 -282 48 -45 147 -180 173 -238
31 -68 45 -136 49 -224 l2 -74 -77 -28 c-261 -96 -497 -268 -664 -487 -32 -41
-65 -74 -79 -77 -38 -10 -153 3 -211 23 -107 38 -232 150 -295 263 -19 34 -47
75 -62 91 -25 26 -32 29 -69 23 -55 -9 -96 -35 -155 -100 -126 -138 -190 -358
-137 -472 22 -47 47 -53 186 -49 134 5 236 -10 313 -44 65 -29 193 -119 221
-156 24 -32 24 -33 10 -109 -25 -127 -30 -185 -28 -325 l1 -134 -37 -40 c-50
-54 -145 -114 -207 -132 -106 -31 -261 -21 -401 26 -69 22 -98 17 -132 -25
-106 -135 9 -544 171 -611 52 -21 76 -9 172 84 147 143 222 183 380 206 22 3
54 8 70 11 17 3 53 3 81 -1 46 -5 52 -9 68 -42 38 -79 151 -237 226 -316 l79
-82 -3 -71 c-6 -132 -60 -241 -162 -332 -55 -50 -193 -132 -220 -132 -8 0 -29
-14 -46 -30 -27 -28 -30 -36 -26 -79 14 -148 270 -339 458 -342 113 -2 141 26
146 148 4 112 11 172 24 226 13 50 63 156 88 183 9 11 39 45 65 77 71 84 69
83 194 42 135 -46 260 -71 387 -80 112 -8 113 -9 165 -105 48 -90 62 -223 37
-340 -10 -46 -47 -153 -65 -189 -51 -101 50 -175 239 -174 219 1 436 125 416
237 -3 15 -28 52 -56 83 -66 72 -123 156 -154 227 -14 31 -23 56 -21 56 3 0 0
11 -5 24 -5 13 -12 73 -15 134 l-6 109 58 18 c79 25 286 131 358 184 33 25 86
66 117 93 45 39 62 48 80 43 95 -26 186 -89 248 -171 47 -62 117 -201 126
-251 25 -135 229 -73 368 111 90 118 132 252 106 331 -15 45 -45 60 -135 70
-95 9 -188 33 -260 65 -57 26 -187 126 -208 162 -8 12 -1 36 31 100 46 92 117
299 127 368 4 24 8 47 11 51 2 3 6 46 10 95 3 49 8 92 10 96 2 3 25 14 52 23
57 21 181 28 242 14 25 -6 52 -12 60 -14 31 -7 127 -47 177 -76 70 -39 104
-38 146 4 52 52 72 129 71 267 -1 131 -17 197 -67 280 -38 65 -89 102 -128 96
-15 -2 -56 -24 -91 -49 -162 -116 -268 -155 -413 -153 l-88 1 -37 110 c-66
198 -173 389 -287 513 l-23 25 31 56 c56 103 140 172 281 230 43 17 101 36
130 41 67 12 98 44 98 100 0 54 -29 126 -77 191 -43 57 -126 139 -141 139 -5
0 -15 6 -21 14 -24 28 -126 68 -188 74 -59 4 -63 3 -92 -26 -17 -17 -31 -41
-32 -54 -1 -27 -3 -38 -19 -98 -47 -178 -107 -275 -230 -373 l-45 -35 -40 24
c-189 117 -482 199 -720 203 -38 1 -42 4 -72 54 -50 85 -66 142 -65 242 0 99
25 212 66 296 28 60 23 97 -21 135 -40 34 -84 46 -193 49 -74 3 -112 -2 -175
-19z"/>
</g>
</svg>
