<svg xmlns="http://www.w3.org/2000/svg" xmlns:xlink="http://www.w3.org/1999/xlink" width="150" height="150" viewBox="0 0 150 150">
  <defs>
    <clipPath id="clip-path">
      <circle id="Ellipse_7" data-name="Ellipse 7" cx="75" cy="75" r="75" fill="none"/>
    </clipPath>
  </defs>
  <g id="Group_6" data-name="Group 6" transform="translate(-31.711 -293.129)">
    <g id="Group_13" data-name="Group 13" transform="translate(31.711 293.129)" clip-path="url(#clip-path)">
      <circle id="Ellipse_5" data-name="Ellipse 5" cx="75" cy="75" r="75" fill="#ff8bb5"/>
      <g id="Group_12" data-name="Group 12" transform="translate(20.96 15.189)">
        <path id="Path_112" data-name="Path 112" d="M86.87,398.689c-.265.151-.076-.164,0,0Z" transform="translate(-43.718 -291.149)" fill="#77f"/>
        <path id="Path_113" data-name="Path 113" d="M145.606,424.581c-.466,1.981-3.029,3.585-5.528,4.846-1.5.745-2.979,1.363-3.963,1.856a84.11,84.11,0,0,1-11.334,4.657,86.022,86.022,0,0,1-10.348,2.714,84.807,84.807,0,0,1-38.051-1.162,39.207,39.207,0,0,1-8.494-3.143,51.616,51.616,0,0,1-7.965-5.578c-7.067-5.641-10.5-10.388-9.68-19.664.5-5.616,1.439-11.459,4.783-15.99,4.279-5.818,11.574-8.355,18.162-11.309a15.138,15.138,0,0,0,5.2-3.32c1.35-1.5,2.145-3.5,3.773-4.682a28.114,28.114,0,0,0,5.086,4.317c2.184,1.186,4.2,1.956,6.665,1.477a27.3,27.3,0,0,1-3.371,5.212,27.314,27.314,0,0,0-3.924,8.229c-.67,2.335-.985,5.073.138,7.332a4.073,4.073,0,0,0,2.436,2.221c.291.1,3.7.784,3.66.43a.19.19,0,0,0-.026-.1.013.013,0,0,1,.013-.013,2.152,2.152,0,0,0,.72-1.123q3.066-8.481,6.159-16.95a80.9,80.9,0,0,0,3.206-9.6c.227-1.035-.026-2.246.9-2.574,1.035-.353,3.723,1.337,4.581,1.854,1.338.821,2.942,1.894,4.317,1.149,1.136-.619,1.678-2.322,2.965-2.3a1.947,1.947,0,0,1,1.212.542c1.414,1.25,1.717,3.32,1.629,5.2-.164,3.535-1.338,6.9-2.461,10.224-.555,1.678-1.11,3.344-1.552,5.06-.416,1.628-.341,3.244-.858,4.859-.467,1.451-.934,2.9-1.4,4.342a2.409,2.409,0,0,1,1.591-.782,9.7,9.7,0,0,1,6.512,1.149,33.772,33.772,0,0,0,1.123-5.818,49.385,49.385,0,0,0-.783-8.28c-.114-.617-.228-1.236-.329-1.855-.1-.467-.177-.922-.252-1.388-.012-.114-.037-.215-.05-.328a37.616,37.616,0,0,1-.366-7.245c.151-.026.3-.037.455-.05a12.3,12.3,0,0,1,5.01,1.1,25.792,25.792,0,0,1,4.292,1.817,11.4,11.4,0,0,1,2.07,1.464,11.1,11.1,0,0,1,2.36,3.067c1.539,2.839,2.145,6.272,2.865,9.49.365,1.629.783,3.257,1.249,4.872,1.263,4.481,2.839,8.873,4.354,13.29C143.247,416.731,146.25,421.817,145.606,424.581Z" transform="translate(-49.674 -295.385)" fill="#77f"/>
        <circle id="Ellipse_6" data-name="Ellipse 6" cx="1.799" cy="1.799" r="1.799" transform="translate(57.061 96.291)" fill="#fff"/>
        <path id="Path_114" data-name="Path 114" d="M53.771,395.012a28.256,28.256,0,0,0,24.863,21.91,2.695,2.695,0,0,1,3.1,2.558,26.658,26.658,0,0,0,2.1,5.219c.255.479.758,1.029,1.236.771a1.071,1.071,0,0,0,.417-.78l.7-3.425c1.449.294,2.509,1.486,3.649,2.429s2.76,1.7,4.052.976c1.158-1.892.46-4.308.415-6.525a21.2,21.2,0,0,1,1.006-5.895l2.3-8.517c2.521-9.345,5.055-18.725,8.869-27.623a1.105,1.105,0,0,1,.415-.574c.366-.2.808.056,1.144.3,3.032,2.245,5.629,2.3,8.835.151,1.06.977.844,2.677.542,4.087l-2.651,12.395c-.4,1.846-.931,8.627-2.8,9.741,3.046-1.817,6.683.308,9.557,1.394a53.607,53.607,0,0,0-1.227-20.022c.085.334,3.868,1.725,4.4,2.045a14.661,14.661,0,0,1,4.2,3.279c1.882,2.61,2.636,7.041,3.442,10.155a79.458,79.458,0,0,1,2.429,24.068,24.967,24.967,0,0,1-1.436,7.948c-1.136,2.852-5.495,3.454-8.126,4.351a84.331,84.331,0,0,1-12.152,3.253c-10.174,1.837-22.361,1.793-31.869-2.643-8.5-3.965-15.515-10.743-20.89-18.331C56.939,412.973,49.558,400.784,53.771,395.012Z" transform="translate(-49.287 -294.921)" fill="#6363eb"/>
        <path id="Path_115" data-name="Path 115" d="M81.391,395.5a23.7,23.7,0,0,0-.169,5.568,7.982,7.982,0,0,0,2.332,4.946,1.419,1.419,0,0,0,.859.442,1.541,1.541,0,0,0,1.151-.766,14.784,14.784,0,0,0,2.886-6.991,7.775,7.775,0,0,1-2.822.319,2.643,2.643,0,0,1-2.2-1.588" transform="translate(-44.632 -291.661)" fill="#6363eb"/>
        <path id="Path_116" data-name="Path 116" d="M104.182,403.417c-.128-.176-.406.127-.284.306s.378.186.594.179a17.6,17.6,0,0,1,7.095,1.219c-.13-1.923.908-3.716,1.267-5.609.472-2.493-.246-5.033-.779-7.512-1.716-7.981-1.531-16.231-1.339-24.393a14.731,14.731,0,0,1-4.146.956,7.951,7.951,0,0,1-.5,4.873,3.507,3.507,0,0,1,2.782,1.939,10.975,10.975,0,0,1,1.294,6.752,32.756,32.756,0,0,1-1.652,6.782q-2.086,6.5-4.169,13Z" transform="translate(-40.93 -296.199)" fill="#fff"/>
        <path id="Path_117" data-name="Path 117" d="M103.8,403.268a16.217,16.217,0,0,1,8.168,1.443c1.479-5.2.749-10.733.1-16.1q-1.189-9.784-1.979-19.61a5.766,5.766,0,0,0-2.927,1.193,2.533,2.533,0,0,0-.753,2.882,2.027,2.027,0,0,1,2.11,1.059,5.494,5.494,0,0,1,.578,2.443,49.118,49.118,0,0,1-2.634,19.563Z" transform="translate(-40.941 -295.972)" fill="#b7b7ff"/>
        <path id="Path_118" data-name="Path 118" d="M98.319,377.482a20.309,20.309,0,0,1-2.258-12.371,15.783,15.783,0,0,1,6.467-10.618c1.159-.788,2.847-1.353,3.856-.379.83.8.665,2.149.439,3.28,1.027-.5,2.264.263,2.88,1.225s.879,2.123,1.523,3.067c.578.846,1.432,1.472,2.022,2.31a4.63,4.63,0,0,1-4.931,7.151q-1.012,3.054-2.021,6.107c-.5,1.5-1.4,3.3-2.979,3.24Z" transform="translate(-42.233 -298.478)" fill="#fff"/>
        <path id="Path_119" data-name="Path 119" d="M99.357,376.9a2.333,2.333,0,0,0,2.371-1.3,6.4,6.4,0,0,0,.58-2.816,27.342,27.342,0,0,1,.606-5.916,7.264,7.264,0,0,1,3.394-4.69,5.261,5.261,0,0,1,2.718-.573,5.007,5.007,0,0,1,3.622,1.881,4.51,4.51,0,0,1,.771,3.976,4.351,4.351,0,0,1-4.349,3,1.354,1.354,0,0,0-.988.142,1.19,1.19,0,0,0-.313.652c-.659,2.686-1.778,5.481-4.1,6.979-.356.23-1.055.215-.97-.2Z" transform="translate(-41.664 -297.178)" fill="#e1e1ff"/>
        <path id="Path_120" data-name="Path 120" d="M89.27,406.53a10.464,10.464,0,0,1-6.959-1.171,3.778,3.778,0,0,1-1.93-2.066,4.559,4.559,0,0,1-.108-1.337c.06-3.409.888-7.25,3.009-9.973,2.724-3.5,5.764-7.058,6.516-11.428.362-2.1.116-4.194.494-6.276.362-1.985.484-4.024.706-6.029.446-4.016,1.038-8.137,3.063-11.7a10.1,10.1,0,0,1,5.436-4.871c1.452-.459,5.978-.381,6.372,1.808.169.932-3.852,4.723-4.546,5.981a19.46,19.46,0,0,0-1.567,15.389,1.968,1.968,0,0,1,.1,1.565,2.662,2.662,0,0,1-.77.694c-2.3,1.779-1.173,5.823-3.2,7.9Z" transform="translate(-44.77 -298.828)" fill="#fff"/>
        <path id="Path_121" data-name="Path 121" d="M84.6,404.806c-1-1.108-.9-2.9-.792-4.269A26.439,26.439,0,0,1,86.7,391.39c2.118-4.293,4.812-8.368,6.022-13,1.085-4.154.91-8.537,1.694-12.758s2.872-8.611,6.81-10.326q-1.212,6.094-2.185,12.229c-.41,2.585-.781,5.279-.013,7.78a6.147,6.147,0,0,0-1.107,2.277c-3.106,9.582-5.9,19.348-9.361,28.8C87.465,405.4,85.761,406.084,84.6,404.806Z" transform="translate(-44.205 -298.201)" fill="#e1e1ff"/>
        <path id="Path_122" data-name="Path 122" d="M78.427,343.841l1.21.507a4.363,4.363,0,0,0-5.583-.638,6.607,6.607,0,0,0-2.746,5.25,5.5,5.5,0,0,0,.323,2.334c1,2.485,4.153,3.286,6.827,3.14q1.259,13.993,1.377,28.057a5.576,5.576,0,0,0,2.382,4.079,12.433,12.433,0,0,0,7.575,2.909c4.008-7.138,1.1-16.6,4.006-24.254a16.381,16.381,0,0,1,3.081-5.079c2.818-3.164,6.658-4.747,10.144-1.691a6.7,6.7,0,0,1,1.46,1.589c.4-.291.672-.8,1.17-.767a1.782,1.782,0,0,1,1.323,1.091,4.459,4.459,0,0,1,.272,3.351,4.217,4.217,0,0,1,3.316,1.179,2.5,2.5,0,0,0,1.07.935c-.135-4.1.9-8.462,1.248-12.562.363-4.263.592-8.54.544-12.82-.041-3.682-.444-7.352-.353-10.992.05-1.985-.017-6.088-1.256-7.732-1.448-1.922-7.741-2.331-10.047-2.636a49.949,49.949,0,0,0-21.576,1.863,19.962,19.962,0,0,0-6.447,3.132,9.162,9.162,0,0,0-3.6,6.021,10.507,10.507,0,0,0,2.118,6.832Z" transform="translate(-46.229 -304.164)" fill="#fff"/>
        <path id="Path_123" data-name="Path 123" d="M90.577,364.468c-2.052.889-4.283-.745-6.509-.956a.656.656,0,0,0-.5.1.637.637,0,0,0-.134.562c.26,2.237,2.557,3.573,3.854,5.415,1.315,1.864,1.582,4.242,1.93,6.5a.8.8,0,0,0,.145.412.55.55,0,0,0,.78-.06,1.542,1.542,0,0,0,.315-.81,28.6,28.6,0,0,0,.292-7.6" transform="translate(-44.256 -296.867)" fill="#e1e1ff"/>
        <path id="Path_124" data-name="Path 124" d="M87.409,324.515a24.932,24.932,0,0,0,18.87,6.682l.753,8.426a3.207,3.207,0,0,0,.608,1.928c.808.884,2.453.723,3.052,1.76,1.06,1.842-2.724,3.972-1.571,5.757.237.366.644.6.882.962.642.991-.315,2.309-1.407,2.758s-2.354.46-3.359,1.08a1.215,1.215,0,0,0-.591.686c-.293,1.2,1.961,1.109,2.717,2.091.509.66.171,1.6.043,2.42a4.559,4.559,0,0,0,5.028,4.95c1.867-4.769,2.043-10.006,2.2-15.126l.8-26.821Z" transform="translate(-43.608 -303.609)" fill="#e1e1ff"/>
        <path id="Path_125" data-name="Path 125" d="M88.574,324.835l.286.145c-.335-.094-.666-.192-1-.3C88.1,324.739,88.334,324.794,88.574,324.835Z" transform="translate(-43.534 -303.183)" fill="#372b7b"/>
        <path id="Path_126" data-name="Path 126" d="M83.743,311.788c-.322.253-.63.519-.93.793l-.066-.034C83.07,312.286,83.4,312.031,83.743,311.788Z" transform="translate(-44.366 -305.281)" fill="#372b7b"/>
        <g id="Group_11" data-name="Group 11">
          <path id="Path_127" data-name="Path 127" d="M99.635,351.021a2.651,2.651,0,0,0,1.635-1.359,3.076,3.076,0,0,0,.322-1.116,2.179,2.179,0,0,0-.008-.477,1.456,1.456,0,0,0-.266-.677.566.566,0,0,0-1.035.427v.01l0,.017.006.077.038.314.021.1.009.171-.008.222,0,.029-.007.031c-.028.142-.083.271-.117.409l-.042.086-.1.178-.1.141-.026.031-.062.069-.146.141-.009.012-.076.052-.173.106-.1.049-.02.007a.493.493,0,1,0,.262.95Z" transform="translate(-41.72 -299.533)" fill="#372b7b"/>
          <path id="Path_128" data-name="Path 128" d="M114,353.395a31.166,31.166,0,0,1,4.446-1.3,5.021,5.021,0,0,0-.053,2.034c.253,1.107,1.173,1.3,2.164,1.076,2.546-.574,5.086-1.185,7.629-1.777.866-.2.5-1.521-.367-1.33l-5.64,1.237-1.343.293c-.224.05-.448.1-.672.148l-.307.05a3.188,3.188,0,0,1,.045-1.159,9.448,9.448,0,0,1,.3-1.376.76.76,0,0,0-.924-.924,31.216,31.216,0,0,0-5.629,1.739C112.869,352.432,113.185,353.7,114,353.395Z" transform="translate(-39.411 -299.006)" fill="#372b7b"/>
          <path id="Path_129" data-name="Path 129" d="M118.21,363.178a1.62,1.62,0,0,0,1.339,1.585,4.321,4.321,0,0,0,1.316-.072l1.592-.2,2.985-.38a.859.859,0,1,0-.23-1.7c-1.677.226-3.356.5-5.038.678-.158.017-.353-.048-.286.089a1.874,1.874,0,0,1,.029-.735,3.3,3.3,0,0,0-.224-1.777.828.828,0,0,0-.92-.373,33.041,33.041,0,0,0-4.175,1.353,1.9,1.9,0,0,0-.739.463.652.652,0,0,0-.067.808.859.859,0,0,0,.731.21c.238-.016,3.792-1.159,3.783-1.1l-.037.28A5.029,5.029,0,0,0,118.21,363.178Z" transform="translate(-39.333 -297.392)" fill="#372b7b"/>
          <path id="Path_130" data-name="Path 130" d="M77.347,344.382a2.433,2.433,0,0,0-.946-1.524,1.828,1.828,0,0,0-1.577-.32,1.5,1.5,0,0,0-.963.972,1.236,1.236,0,0,0,.3,1.345.246.246,0,0,0,.349-.346.669.669,0,0,1-.091-.724.936.936,0,0,1,.229-.333.63.63,0,0,1,.315-.173,1,1,0,0,1,.863.279l.1.1.05.054.165.267.031.065,0-.008.047.142.041.171.015.086v.234l-.006.088-.007.058v-.01c-.029.134-.053.266-.094.4l-.027.086v0l-.051.07.014-.017a2.341,2.341,0,0,0-.291.5.813.813,0,1,0,1.487.628,1.785,1.785,0,0,0,.121-.607,4.364,4.364,0,0,1,0-.462A3.672,3.672,0,0,0,77.347,344.382Z" transform="translate(-45.825 -300.289)" fill="#372b7b"/>
          <path id="Path_131" data-name="Path 131" d="M89.195,343.231a10.149,10.149,0,0,1,2.672,2.251c-.633.286-1.266.57-1.9.856a.642.642,0,0,0-.229.877.654.654,0,0,0,.876.23l2.435-1.26a.574.574,0,0,0,.114-.888,10.955,10.955,0,0,0-3.52-2.831C89.135,342.208,88.7,342.942,89.195,343.231Z" transform="translate(-43.353 -300.299)" fill="#372b7b"/>
          <path id="Path_132" data-name="Path 132" d="M107.758,343.213,104,344.6a.562.562,0,0,0-.133,1.014l1.158.735.563.356a4.092,4.092,0,0,0,.706.317c.5.2.933-.569.528-.906a4.257,4.257,0,0,0-.584-.449c-.2-.117-.409-.23-.614-.344l-.23-.128,2.7-1.172a.445.445,0,0,0-.342-.812Z" transform="translate(-40.972 -300.172)" fill="#372b7b"/>
          <path id="Path_133" data-name="Path 133" d="M87.683,339.186c.014-.006.107-.047.141-.063.213-.09.43-.166.649-.236a9.585,9.585,0,0,1,1.3-.307l.023,0,.176-.02c.117-.013.235-.022.352-.03a5.839,5.839,0,0,0,.852-.124.868.868,0,0,0,0-1.674,2.974,2.974,0,0,0-.9-.055c-.288.036-.576.076-.859.131a8.724,8.724,0,0,0-1.449.423,9.878,9.878,0,0,0-2.766,1.627.791.791,0,0,0,.956,1.241,8.529,8.529,0,0,1,1.2-.751Z" transform="translate(-44.004 -301.235)" fill="#372b7b"/>
          <path id="Path_134" data-name="Path 134" d="M102.718,338.975l4.73,1.431a.74.74,0,1,0,.393-1.427l-4.8-1.193A.617.617,0,0,0,102.718,338.975Z" transform="translate(-41.187 -301.055)" fill="#372b7b"/>
          <path id="Path_135" data-name="Path 135" d="M144.124,429.09a170.87,170.87,0,0,1-8.179-26.671,15.491,15.491,0,0,0-5.391-9.33,16.141,16.141,0,0,0-9.961-3.694,76.036,76.036,0,0,0-1.4-10.01,6.31,6.31,0,0,0,2.168-9.289c-.685-.939-1.7-1.529-2.3-2.531l-.094-.158.029-.047c2.209-5.825,1.788-12.461,2.1-18.585.143-2.841.263-5.667.283-8.491a.557.557,0,0,0,.621-.28,9.59,9.59,0,0,0,.937-2.913c.207-.974.363-1.959.486-2.949a21.551,21.551,0,0,0,.2-2.908c-.012-.992.1-2.208-.563-2.981a4.521,4.521,0,0,0,1.723-1.938,12.659,12.659,0,0,0,.7-5.474,9.038,9.038,0,0,0-.441-2.456,15.45,15.45,0,0,0-6.809-9.227c-.17-.108-.345-.2-.517-.3l-.123-.071c-.348-.2-.7-.388-1.055-.563l-.091-.049-.049-.019c-6.08-2.909-13.476-2.191-19.789-.4C90.84,309.4,85,312.916,82.925,318.51c-.076.13-.152.258-.217.391-.26.007-.519.027-.778.059a9.926,9.926,0,0,0-8.458,6.409c-.924,2.589-.308,5.416.6,7.915.121.334.251.669.376,1,.576,3.567,2.259,6.694,3.111,10.159a.364.364,0,0,1-.2.513,5.98,5.98,0,0,0-3.2,4.611,7.482,7.482,0,0,0,2.731,6.987,5.119,5.119,0,0,0,2.677.977A25.746,25.746,0,0,1,82.037,368.7c-.047,1.677-.071,3.357-.063,5.044q.016,2.984.165,5.96.078,1.606.178,3.209a7.1,7.1,0,0,0,.137,1.358l-.14.056-.155.026q-.7.511-1.394,1.025-.342.253-.681.513a2.674,2.674,0,0,0-.385.308c-.106.114-.2.246-.294.369a.419.419,0,0,0,.507.658c.127-.072.255-.143.38-.216a2.009,2.009,0,0,0,.378-.316c.213-.2.427-.408.636-.615l.888-.876a12.546,12.546,0,0,0,9.873,6.767l-.17.323c-.667,1.179-1.35,2.256-2.017,3.278A16.1,16.1,0,0,1,79.5,387.638a.185.185,0,0,0-.148-.27c-.062-.116-.129-.229-.188-.348a.223.223,0,0,0-.406.171c.047.138.107.269.158.4a108.16,108.16,0,0,1-11.672,6.743c-3.826,1.8-7.563,3.056-10.316,6.455-.2.25-.387.509-.576.769l-.157.124a12.177,12.177,0,0,0-3.656,7.529q-.34.982-.642,1.968c-1.293,4.26-2.406,9.123-2.121,13.6a.716.716,0,0,0,1.43,0c.431-3.308.72-6.544,1.364-9.768a24.672,24.672,0,0,0,1.7,6.225c3.184,7.447,10.37,12.2,16.96,16.4a47.9,47.9,0,0,0,12.841,6.088c4.132,1.134,9.811,2,13.719-.227a.4.4,0,0,0-.2-.735c-1.848.062-3.664.435-5.518.472a25.608,25.608,0,0,1-6.218-.666,39.191,39.191,0,0,1-10.693-4.4,99.844,99.844,0,0,1-9.551-6.305,35.852,35.852,0,0,1-8.269-7.88,20.933,20.933,0,0,1-3.416-8.209c-.552-3.03.063-5.554.98-8.456a10.064,10.064,0,0,1,1.664-3.559c3.774-4.476,10.545-3.261,14.373.53,1.246,1.235,2.286,2.649,3.406,3.994a59.347,59.347,0,0,0,4.489,4.673,108.4,108.4,0,0,0,9.317,8.56c-.153.187-.31.371-.46.563a19.908,19.908,0,0,0-2.92,5.117c-.48,1.238-1.664,3.7-.664,4.855l.329.042c.7-.479.621-1.012.8-1.839a17.72,17.72,0,0,1,1.148-3.492,18.878,18.878,0,0,1,2.453-3.935,20.907,20.907,0,0,0-.574,2.508c-.237,1.491-.876,4.637,1.053,5.344a.667.667,0,0,0,.6-1.156,1.5,1.5,0,0,1-.545-.828,9.218,9.218,0,0,1,.031-3.1,23.252,23.252,0,0,1,1.2-4.9,26.835,26.835,0,0,0,4.3-8.454q3.164-9.423,6.284-18.863.832-2.5,1.665-5c.459-1.378,1.279-2.538,1.4-3.978a11.6,11.6,0,0,0,1.6,1.307,23.894,23.894,0,0,0,6.981,2.958c1.546.38,4.624.469,5.329-1.368.652,5.246-1.741,10.435-3.181,15.368q-2.252,7.716-4.5,15.427c-1.394,4.773-2.689,9.587-4.2,14.321a23.035,23.035,0,0,1-2.538,5.725,11.27,11.27,0,0,1-1.88,2.214c-.638.572-1.392.878-1.627,1.746a.376.376,0,0,0,.258.455c1.556.442,3.159-1.627,4-2.706a20.034,20.034,0,0,0,2.772-5.219c1.873-4.916,3.066-10.145,4.516-15.2q.752-2.623,1.506-5.249a9.116,9.116,0,0,1,6.243,1.4.552.552,0,0,0,.735-.192c2.88-4.151,1.264-10.569.974-15.279-.2-3.3-.348-6.632-.6-9.956a17.583,17.583,0,0,1,10.2,4.758c3.028,3.021,3.579,6.768,4.538,10.748a168.626,168.626,0,0,0,7.644,23.738C143.3,430.057,144.395,429.769,144.124,429.09ZM83.321,385l.073-.071a4,4,0,0,0,.215-2.478q-.056-1.373-.1-2.75-.061-1.957-.117-3.917c.057-2.277.048-4.558.048-6.809,0-2.208-.022-4.416-.035-6.624.43-.862-.022-5.308-.035-6.544a.581.581,0,0,0-.98-.407,3.388,3.388,0,0,1-2.113.965.572.572,0,0,0-.388.009,4.185,4.185,0,0,1-2.854-1.26,6.4,6.4,0,0,1-1.644-5.375,4.675,4.675,0,0,1,3.114-3.982,3.768,3.768,0,0,1,4.3,1.5.668.668,0,0,0,1.235-.334,74.394,74.394,0,0,0-.619-13.984,8.187,8.187,0,0,0,6.021-3.852,4.86,4.86,0,0,0,.508-1.152,29.855,29.855,0,0,0,6.357,2.014,55.8,55.8,0,0,0,11.013,1.193c3.616.087,7.712.486,11.221-.533a8.634,8.634,0,0,0,1.369-.539,143.564,143.564,0,0,1-.141,18.4c-.31,5.74,0,11.943-1.82,17.477a3.925,3.925,0,0,0-.578-.521,8.659,8.659,0,0,0-2.329-1.124,3,3,0,0,0-3.135-3.686c-8.31-7.794-14.646,3.674-15.954,11.893-.057.356-.107.714-.156,1.072-.571-.137-1.143-.271-1.712-.413a.715.715,0,1,0-.38,1.379c.636.158,1.274.309,1.911.459-.6,5.245-.726,10.664-2.849,15.512A11.917,11.917,0,0,1,83.321,385Zm8.042,32.326a23.581,23.581,0,0,1-2.592,3.45,121.784,121.784,0,0,0-9.308-9.273,53.882,53.882,0,0,1-4.443-4.716,38.994,38.994,0,0,0-3.308-3.792c-.7-1.4-3.615-2.48-4.982-2.936-2.079-.694-3.807-.429-5.948-.3,6.086-3.558,13.59-5.741,18.681-10.789l.036-.055a15.028,15.028,0,0,0,9.738,7.633c-2.649,4.022-4.865,7.416-4.506,13.354a.8.8,0,0,0,.249.54l.115.249A7.266,7.266,0,0,0,87.3,413a8.622,8.622,0,0,0,2.909,1.326,8.989,8.989,0,0,0,1.573.238,5.884,5.884,0,0,0,.884,0A21.226,21.226,0,0,1,91.363,417.324Zm12.615-34.9a.191.191,0,0,0,.013.052c.066.256.124.515.2.767l-.2,0a.222.222,0,0,0-.4-.081,14.16,14.16,0,0,0-.7,1.451,9.109,9.109,0,0,0,.072-2.321l-.07-2.491c-.047-1.671-.135-3.316-.3-4.98a.148.148,0,0,0-.3,0c-.165,1.664-.252,3.309-.3,4.98l-.07,2.491a31.767,31.767,0,0,1-1.131,8.294c-1.031,3.529-2.437,6.952-3.585,10.434-1.22,3.7-2.4,7.406-3.647,11.095-.114.338-.233.673-.351,1.01a4.294,4.294,0,0,0-1.072-.016,7.642,7.642,0,0,1-1.165-.048c-1.862-.231-4.2-1.764-4.647-3.722a11.01,11.01,0,0,1,.517-4.352,22.413,22.413,0,0,1,1.618-4.346c.191-.4,1.779-3.87,2.092-3.822l.042,0a13.911,13.911,0,0,1,1.255-2.2c.145-.247.292-.492.435-.739.3-.586.536-1.2.859-1.781a15.956,15.956,0,0,1,1.066-1.621c-.037,0-.074.013-.112.016a22.353,22.353,0,0,0,1.988-5.934c.585-3.508.692-7.027,1.145-10.539.121-.927.307-1.757.515-2.664.783-3.413,1.812-7.077,4.093-9.824a6.105,6.105,0,0,1,3.814-2.365,5.332,5.332,0,0,1,2.407.29c.38.13,2.511,1.552,2.644,1.5a12.04,12.04,0,0,0-5.392,5.594A22.888,22.888,0,0,0,103.979,382.423Zm7.606,4.2a16.139,16.139,0,0,1-6.469-3.806,25.6,25.6,0,0,1,.219-12.6,14.433,14.433,0,0,1,3-5.681,10.013,10.013,0,0,1,2.589-2.124,3.368,3.368,0,0,1,1.067-.386.448.448,0,0,0,.493-.008,1.286,1.286,0,0,1,.8.431,1.629,1.629,0,0,1,.186,1.935.727.727,0,0,0,.429,1.055,9.761,9.761,0,0,1,2.42,1.017A4.838,4.838,0,0,1,117.8,368.3c.8,1.371,2.261,2.11,2.9,3.6a4.889,4.889,0,0,1-4.051,6.781c.014-.1.028-.2.044-.3.176-1.021.328-2.535,1.417-2.985,1.062.177,1.845-1.365.739-1.935-1.7-.878-2.5.922-2.864,2.264a22.2,22.2,0,0,0-.513,2.521c-.063.43-.223.882-.266,1.317C114.6,382.161,113.791,385.027,111.585,386.619Zm5.085.277c-.386.488-1.541.277-2.079.238q-.624-.045-1.242-.134a9.408,9.408,0,0,0,1.809-2.647,5.078,5.078,0,0,1,1.263.938A1.347,1.347,0,0,1,116.67,386.9Zm4.3,20.245a15.388,15.388,0,0,1-.576,5.567c-.05.162-.1.321-.162.48a11.193,11.193,0,0,1-.566,1.307,5.7,5.7,0,0,0-2.813-1.01c-.381-.03-3.17-.684-3.24-.437l2.951-10.285c1.412-4.919,3.525-10.493,2.039-15.612a.234.234,0,0,0-.355-.107l.087-.288c.255-1.78-1.117-3.079-2.638-3.711a27.666,27.666,0,0,0,.851-2.9,6.534,6.534,0,0,0,2.368-.62c-.292,7.624.738,15.345,1.174,22.953C120.19,404.119,120.871,405.548,120.974,407.141Z" transform="translate(-49.737 -306.192)" fill="#372b7b"/>
        </g>
        <path id="Path_136" data-name="Path 136" d="M85.688,315.611a19.444,19.444,0,0,1,15.254-3.343c1.632.364,2.329-2.145.693-2.51-6.266-1.4-12.343.034-16.879,4.646C84.163,315.005,84.95,316.128,85.688,315.611Z" transform="translate(-44.073 -305.695)" fill="#fff"/>
        <path id="Path_137" data-name="Path 137" d="M103.6,313.646a1.421,1.421,0,0,0,0-2.839A1.421,1.421,0,0,0,103.6,313.646Z" transform="translate(-41.196 -305.441)" fill="#fff"/>
      </g>
    </g>
  </g>
</svg>
