<svg xmlns="http://www.w3.org/2000/svg" xmlns:xlink="http://www.w3.org/1999/xlink" width="119.681" height="123.908" viewBox="0 0 119.681 123.908">
  <defs>
    <clipPath id="clip-path">
      <ellipse id="Ellipse_8" data-name="Ellipse 8" cx="59.84" cy="61.954" rx="59.84" ry="61.954" fill="none"/>
    </clipPath>
  </defs>
  <g id="Group_15" data-name="Group 15" transform="translate(0)">
    <g id="Group_17" data-name="Group 17" transform="translate(0)" clip-path="url(#clip-path)">
      <g id="Group_16" data-name="Group 16" transform="translate(14.88 13.41)">
        <g id="Group_15-2" data-name="Group 15">
          <path id="Path_138" data-name="Path 138" d="M265.661,341.437c.473-1.9,3.047-2.6,4.659-1.555a6.2,6.2,0,0,1,1.335,7.666c-1.057,1.691-3.177,2.334-5.123,2.316q-.783,11.909-.71,23.855a11.636,11.636,0,0,1-12.088,2.233,6.3,6.3,0,0,1-2.93-2.184c-1.675-2.5.213-7.792-2.585-9.162-1.188-.581-3.113-.111-4.424-.451a7.885,7.885,0,0,1-4.6-3.036c-4.109-5.963-3.34-14.5-3.187-21.34a74.016,74.016,0,0,0-.433-9.82c-.313-2.817-.735-5.9.732-8.295,1.858-3.035,5.843-3.59,9.308-3.786,5.726-.325,12.007-.323,16.477,3.4A13.007,13.007,0,0,1,266.62,331.7c-.044.953-.144,2.05.513,2.717Z" transform="translate(-211.316 -308.497)" fill="#fff"/>
          <path id="Path_139" data-name="Path 139" d="M267.062,326.118c-4.74,3.344-10.3,6.714-15.874,5.325q.786,8.424,1.571,16.848c5.048-.252,10.322-.461,14.916,1.718a2.248,2.248,0,0,1,1.148.942,2.545,2.545,0,0,1,.123,1.315q-.462,5.463-1.244,10.891a25.225,25.225,0,0,0,5.13-.341,8.73,8.73,0,0,1-4.876,4.138,1.952,1.952,0,0,0-1.2.717,1.887,1.887,0,0,0-.118,1.109q.415,4.25.827,8.5c-2.6,1.121-5.652-.906-6.784-3.571s-.866-5.714-.578-8.611c-2.8-.185-5.7-.536-8.105-2.027-2.961-1.833-3.2-3.369-4.023-6.838s-2.337-8.912-2.253-12.482q.257-11.02.516-22.04l1.526.2Z" transform="translate(-221.415 -308.654)" fill="#e1e1ff"/>
          <path id="Path_140" data-name="Path 140" d="M271.377,365.5c.691-.178.625-4.509.322-5.146-1.171-2.451-4.349-1.019-6.479-1.343A6.538,6.538,0,0,1,261.8,357.6a7.4,7.4,0,0,1-1.8-2.826,19.568,19.568,0,0,1-1.3-5.086,6.53,6.53,0,0,1-3.72.873,3.312,3.312,0,0,0-1.814.129c-.883.474-.988,1.716-.964,2.745a19.8,19.8,0,0,0,.736,5.693,10.414,10.414,0,0,0,7.655,6.916c2.7.537,5.493-.086,8.238.11Z" transform="translate(-226.511 -309.76)" fill="#b7b7ff"/>
          <path id="Path_141" data-name="Path 141" d="M294.348,410.855c-2.052-8.273-4.41-17.077-10.637-22.68-6.46-5.812-16.037-7.135-21.9-13.586a9.705,9.705,0,0,1-9.085,4.949c-3.75-.32-6.625-2.93-8.188-6.325-2.38,3.372-6.492,3.971-10.192,4.845a19.854,19.854,0,0,0-10.24,6.706c-6.058,7.1-6.71,16.471-12.37,23.8a41.2,41.2,0,0,0-4.32,5.893,1.845,1.845,0,0,0-.281,1.3,1.817,1.817,0,0,0,.658.848c3.377,2.826,7.618,4.25,11.762,5.589,14.36,4.637,29.691,8.96,44.245,5.027,6.43-1.737,12.356-5.014,18.214-8.261Z" transform="translate(-207.093 -310.69)" fill="#77f"/>
          <path id="Path_142" data-name="Path 142" d="M229.4,421.734l-4.884-13.347a20.128,20.128,0,0,0-2.944-5.926,1.412,1.412,0,0,0-.989-.643c-.571,0-.929.625-1.153,1.17a55.773,55.773,0,0,0-3.8,17.04c-.171,2.213-.147,4.713,1.364,6.288a6.174,6.174,0,0,0,5.043,1.442,36.8,36.8,0,0,1,5.371-.513Z" transform="translate(-149.995 -311.821)" fill="#6363eb"/>
          <path id="Path_143" data-name="Path 143" d="M286.948,379.409c-.316,2.979-4,4.1-5.607,6.595a9.924,9.924,0,0,0-1.207,4.165c-1.364,10.794-.541,21.747-1.056,32.618a13.623,13.623,0,0,1-1.293,6.089c-3.841,1.089-7.953.408-11.757-.812s-7.44-2.965-11.277-4.063c-.746-.214-1.621-.52-1.828-1.292a2.5,2.5,0,0,1,.268-1.523c1.956-4.962,2.077-10.454,2.619-15.783s1.663-10.905,5.127-14.888c2.781-3.2,6.726-4.97,10.429-6.924s7.471-4.379,9.31-8.236a6.384,6.384,0,0,0,5.118,4Z" transform="translate(-242.169 -310.775)" fill="#6363eb"/>
          <path id="Path_144" data-name="Path 144" d="M274.2,330.947a22.863,22.863,0,0,1-1.174,4.47q-.4,1.066-.9,2.087c-.233.474-.9,1.251-.78,1.812,1.68-.09,2.891,2.681,3.08,4.046a6.185,6.185,0,0,1-2.143,5.676,3.922,3.922,0,0,1-2.1.793,21.538,21.538,0,0,0-1.94,9.074c.036,1.362.056,2.726.049,4.1q-.012,2.423-.13,4.843a16.378,16.378,0,0,0-.2,2.794c.139,1.117,1.007,1.6,1.812,2.232a2.2,2.2,0,0,1,.3.251c.083.093.155.2.231.3a.355.355,0,0,1,.026.447.322.322,0,0,1-.424.088l-.3-.175a1.6,1.6,0,0,1-.3-.257c-.167-.166-.334-.331-.5-.5l-.7-.711a9.718,9.718,0,0,1-9.079,5.527,10.154,10.154,0,0,1-8.648-6.424c-.236-.58.748-1.015.99-.431.069.165.161.317.238.477a19.8,19.8,0,0,1,.054-3.617c.041-.942.122-1.854.225-2.769-3.154.041-6.363-.357-9.005-2.3-2.693-1.986-4.013-5.162-4.558-8.449a54.7,54.7,0,0,1-.586-6.9c-.062-1.732-.094-3.464-.177-5.2-.066-1.354-.122-2.708-.158-4.064a10.3,10.3,0,0,0,0-1.83c-.116-.487-.552-.824-.776-1.26a7.322,7.322,0,0,1-.488-1.847c-.162-.792-.285-1.592-.382-2.4a18.316,18.316,0,0,1-.153-2.364,3.9,3.9,0,0,1,.442-2.422,3.632,3.632,0,0,1-1.352-1.574,10.636,10.636,0,0,1-.547-4.448,7.527,7.527,0,0,1,.347-2,12.529,12.529,0,0,1,5.344-7.5c.134-.088.272-.162.408-.246.029-.018.06-.035.089-.054q.413-.246.836-.462c.024-.011.044-.027.068-.037s.025-.009.037-.014c4.773-2.365,10.577-1.782,15.533-.322,4.515,1.33,9.1,4.189,10.726,8.733.06.106.121.21.172.319a5.694,5.694,0,0,1,.611.048,7.832,7.832,0,0,1,6.637,5.208,9.9,9.9,0,0,1-.47,6.43C274.4,330.4,274.3,330.674,274.2,330.947Zm-35.738,8.07c.14,3.373.281,6.754.479,10.125,1.629-.358,3.125-1.2,4.722-1.7a16.561,16.561,0,0,1,5.948-.631,26.776,26.776,0,0,1,5.813,1.114c1,.3,1.993.626,2.979.974a5.891,5.891,0,0,1,2.193.994c1.232-1.612,2.455-3.234,3.636-4.887q.953-1.334,1.871-2.7c.2-.3.406-.612.609-.917a.6.6,0,0,1-.041-.187,62.787,62.787,0,0,1,.485-11.362,6.294,6.294,0,0,1-3.393-1.525,6.593,6.593,0,0,1-1.33-1.6,4.031,4.031,0,0,1-.4-.936,22.925,22.925,0,0,1-4.988,1.637,42.417,42.417,0,0,1-8.644.969c-2.837.07-6.052.395-8.807-.432a6.788,6.788,0,0,1-1.07-.437A99.643,99.643,0,0,0,238.463,339.017Zm-.6-11.868v0ZM273.461,343.5a3.779,3.779,0,0,0-2.444-3.236,2.984,2.984,0,0,0-2.9.639c-.1.182-.224.358-.352.562q-.448.716-.907,1.425-.945,1.459-1.931,2.89c-1.287,1.865-2.627,3.679-4.056,5.43a.453.453,0,0,1-.209.148,31.889,31.889,0,0,1-.018,6.481,25.174,25.174,0,0,1-.639,3.446,54.36,54.36,0,0,0,4.241-4.335c1.033-1.236,1.973-2.572,2.9-3.875a.972.972,0,0,0,.115-.571c-.007-1.365-.077-2.71-.062-4.074a.454.454,0,0,1,.77-.33,2.623,2.623,0,0,0,1.658.784.446.446,0,0,1,.305.007,3.23,3.23,0,0,0,2.239-1.023A5.324,5.324,0,0,0,273.461,343.5Zm-20.689,28.468a.543.543,0,0,1-.661.394,8.894,8.894,0,0,0,7.055,4.3,9.254,9.254,0,0,0,8.073-4.512.278.278,0,0,1-.057-.058,3.358,3.358,0,0,1-.169-2.013q.043-1.117.077-2.234.047-1.59.092-3.18c-.045-1.851-.038-3.705-.038-5.535,0-1.509.017-3.018.023-4.526a35.024,35.024,0,0,1-6.5,7.673,10.58,10.58,0,0,0,.932-.5c.622-.385,1.184.617.567,1-2.8,1.759-6.289,2.177-9.5,2.285-.032,0-.066,0-.1,0,.1.919.186,1.833.226,2.78A14.851,14.851,0,0,1,252.771,371.967Zm-10.748-11.551a5.68,5.68,0,0,0,2.192,1.818c3.766,1.6,7.992,1.477,12.05,1.118a3.236,3.236,0,0,0,2.077-.65,4.712,4.712,0,0,0,.689-1.956c.289-1.127.559-2.256.742-3.408a27.174,27.174,0,0,0,.321-3.61,16.223,16.223,0,0,0-.172-3.234,11.283,11.283,0,0,1-1.8-.546c-.93-.287-1.867-.558-2.809-.8a30.454,30.454,0,0,0-6.109-.994,15.189,15.189,0,0,0-5.939.859,31.749,31.749,0,0,1-4.254,1.482c0,.064.006.13.011.194C239.245,354.074,239.776,357.779,242.023,360.416Z" transform="translate(-213.168 -308.116)" fill="#372b7b"/>
          <path id="Path_145" data-name="Path 145" d="M254.565,342.5l.173.1h0l.1.032a1.127,1.127,0,0,1,.314.2c-.18-.134-.04-.036,0-.01l.169.1h0l.095.032.215.052.112.008.218,0,.116-.012h-.023l.227-.06.094-.033.014,0,0,0,.191-.1.168-.109.031-.027.07-.07.065-.074.023-.035.111-.211a.434.434,0,0,1,.556-.188.469.469,0,0,1,.258.544,2.115,2.115,0,0,1-1.745,1.594,2.462,2.462,0,0,1-1.276-.085,1.417,1.417,0,0,1-.75-.5,1.761,1.761,0,0,1-.213-.593.5.5,0,0,1,.166-.505A.449.449,0,0,1,254.565,342.5Z" transform="translate(-214.022 -309.458)" fill="#372b7b"/>
          <path id="Path_146" data-name="Path 146" d="M255.905,343.031c-.047.009-.122,0,0,0Z" transform="translate(-213.872 -309.497)" fill="#372b7b"/>
          <path id="Path_147" data-name="Path 147" d="M267.839,343.429a.1.1,0,0,1,.025-.032l-.008.014Z" transform="translate(-236.963 -309.511)" fill="#372b7b"/>
          <path id="Path_148" data-name="Path 148" d="M268.571,343.739l.025,0h-.017Z" transform="translate(-238.374 -309.525)" fill="#372b7b"/>
          <path id="Path_149" data-name="Path 149" d="M267.716,342.492c.121.135.243.271.373.4s.217.255.332.378l.192.189.008.01,0,0,.109.076.113.068.047.026.058.02.09.023a.106.106,0,0,0-.025,0l.033,0h0c.069.019.045.008.012,0l.058,0,.106,0,.189-.051.071-.037.065-.041.138-.141.028-.03c-.006.013,0,.01.017-.017l.021-.024a.048.048,0,0,0-.013.01l0,0,.018-.029,0,0,.018-.068a.463.463,0,0,1,.9,0,1.367,1.367,0,0,1-.013.676,1.254,1.254,0,0,1-.482.651,1.791,1.791,0,0,1-1.165.358,2.266,2.266,0,0,1-1.356-.62,2.546,2.546,0,0,1-.5-.567c-.11-.184-.2-.383-.3-.577a.581.581,0,0,1,.139-.724A.527.527,0,0,1,267.716,342.492Z" transform="translate(-238.846 -309.469)" fill="#372b7b"/>
          <path id="Path_150" data-name="Path 150" d="M253.523,337.011q-.241-.073-.484-.135a1.029,1.029,0,0,1-.627-.276c-.2-.245-.239-.723.109-.881a.706.706,0,0,1,.519-.07l.241.073q.255.082.506.179a10.858,10.858,0,0,1,1.077.481,10.321,10.321,0,0,1,1.855,1.25c.391.326-.125,1.023-.539.723a9.538,9.538,0,0,0-1.747-1.009A9.434,9.434,0,0,0,253.523,337.011Z" transform="translate(-211.506 -309.204)" fill="#372b7b"/>
          <path id="Path_151" data-name="Path 151" d="M268.566,338.348a4.649,4.649,0,0,1,2.816-.681.361.361,0,0,1,0,.721,4.022,4.022,0,0,0-.568.12c-.109.033-.217.068-.324.109l-.121.048,0,0-.076.035a4.153,4.153,0,0,0-.555.317l-.245.18c.118-.111-.023.019-.046.04l-.126.115a.607.607,0,0,1-.924-.064A.655.655,0,0,1,268.566,338.348Z" transform="translate(-241.223 -309.284)" fill="#372b7b"/>
          <path id="Path_152" data-name="Path 152" d="M288.33,354.084a23.744,23.744,0,0,0-3.49-1.052,4.221,4.221,0,0,1,.043,1.652c-.2.9-.921,1.056-1.7.874-2-.467-3.992-.962-5.987-1.443-.68-.163-.391-1.236.289-1.081l4.427,1,1.054.239c.175.039.351.083.527.12.049.01.205,0,.241.04a2.68,2.68,0,0,0-.036-.942,7.625,7.625,0,0,0-.235-1.117.608.608,0,0,1,.726-.751,23.9,23.9,0,0,1,4.418,1.413C289.213,353.3,288.966,354.336,288.33,354.084Z" transform="translate(-266.375 -309.836)" fill="#372b7b"/>
          <path id="Path_153" data-name="Path 153" d="M284.2,363.732a1.3,1.3,0,0,1-1.051,1.287,3.28,3.28,0,0,1-1.033-.059l-1.251-.166-2.341-.309a.7.7,0,1,1,.18-1.377c1.316.183,2.634.4,3.955.551.123.013.277-.039.224.073a1.575,1.575,0,0,0-.022-.6,2.751,2.751,0,0,1,.176-1.443.637.637,0,0,1,.721-.3q.833.184,1.666.371l.757.168.1.015a.508.508,0,0,1,.359-.133.662.662,0,0,1,.441,1.062c-.37.561-1.154.279-1.676.177l-1.276-.249c.01.081.022.165.029.229A4.166,4.166,0,0,1,284.2,363.732Z" transform="translate(-265.612 -310.222)" fill="#372b7b"/>
          <path id="Path_154" data-name="Path 154" d="M208.11,413.574c3.524-6.529,5.363-13.869,8.475-20.6,2.768-5.99,7.147-12.707,13.822-14.352,1.779-.438,3.623-.563,5.413-.952a11.311,11.311,0,0,0,2.623-.83,4.249,4.249,0,0,0,1.943-2.074.275.275,0,0,1,.507.05l.133-.08.089-.065.006,0,.05-.044.173-.174.087-.1.008-.01.031-.044.129-.212.059-.121.009-.021-.007.019.024-.063a.335.335,0,0,1,.4-.238.347.347,0,0,1,.23.419,2.622,2.622,0,0,1-1.143,1.463.364.364,0,0,1,.179.187c4.225,9.859,15.79,9.878,20.986,1.109a.154.154,0,0,1,.045-.077c.065-.111.134-.219.2-.333a.21.21,0,0,1,.382.166c-.041.112-.088.215-.131.325a98.594,98.594,0,0,0,9.949,5.345c3.354,1.647,6.945,3.219,9.9,5.574a20.462,20.462,0,0,1,5.769,7.869,41.089,41.089,0,0,1,3.126,11.1c.085.674-.918.749-1.1.156-1.135-3.671-1.658-7.449-3.251-10.978a18.428,18.428,0,0,0-6.249-7.9c-5.92-3.96-12.565-6.522-18.279-10.844-4.266,10.264-18.491,9.179-22.2-1.145a.4.4,0,0,1,.009-.287,4.239,4.239,0,0,1-2.331,2.068,23.114,23.114,0,0,1-4.9,1.154,16.41,16.41,0,0,0-4.384,1.147,17.715,17.715,0,0,0-4.54,3.072c-5.526,5.121-8.165,12.777-10.774,19.745a85.927,85.927,0,0,1-4.709,11.048C208.6,414.556,207.83,414.093,208.11,413.574Z" transform="translate(-205.224 -310.707)" fill="#372b7b"/>
          <path id="Path_155" data-name="Path 155" d="M239,347.541a.636.636,0,0,1-.861-.429,1.5,1.5,0,0,1-.1-.493,3.379,3.379,0,0,0,0-.376,3.144,3.144,0,0,1,.059-.829,1.987,1.987,0,0,1,.743-1.239,1.4,1.4,0,0,1,1.238-.26,1.2,1.2,0,0,1,.754.79,1.028,1.028,0,0,1-.238,1.093.2.2,0,0,1-.274-.282.56.56,0,0,0,.071-.588.764.764,0,0,0-.181-.27.485.485,0,0,0-.247-.141.768.768,0,0,0-.677.227l-.08.084-.04.043-.129.217-.025.053,0-.007-.035.115-.032.139-.012.07v.19l.006.071,0,.048v-.009c.023.109.043.216.073.323l.021.069v0l.041.058-.011-.014a1.866,1.866,0,0,1,.227.4A.675.675,0,0,1,239,347.541Z" transform="translate(-182.354 -309.53)" fill="#372b7b"/>
          <path id="Path_156" data-name="Path 156" d="M278.795,408.566c.69-5.054,1.129-10.164,1.982-15.192.023-.135.229-.1.228.032a139.179,139.179,0,0,1-1.305,15.286q-.426,3.573-.918,7.134c-.34,2.471-.426,5.358-1.32,7.686a.407.407,0,0,1-.8-.112c-.085-2.321.638-4.824,1-7.113Q278.267,412.431,278.795,408.566Z" transform="translate(-258.284 -311.484)" fill="#372b7b"/>
          <path id="Path_157" data-name="Path 157" d="M225.056,404.128a21.868,21.868,0,0,1,.283,4.239q.117,2.171.263,4.344.3,4.525.915,9.018c.1.733-.986,1.044-1.082.308-.39-2.982-.686-5.976-.87-8.979-.092-1.506-.141-3.008-.147-4.517a17.4,17.4,0,0,1,.191-4.413A.231.231,0,0,1,225.056,404.128Z" transform="translate(-155.299 -311.906)" fill="#372b7b"/>
          <path id="Path_158" data-name="Path 158" d="M260.157,354.676c.638-.032,1.278-.038,1.917-.036,1.305,0,2.61.06,3.911.162.663.052.68,1.1,0,1.081q-1.916-.055-3.834.037c-.614.03-1.226.075-1.84.117a5.5,5.5,0,0,1-1.985.017.6.6,0,0,1-.135-1.061A4.6,4.6,0,0,1,260.157,354.676Z" transform="translate(-226.385 -309.956)" fill="#372b7b"/>
          <path id="Path_159" data-name="Path 159" d="M257.194,360.3a15.753,15.753,0,0,0,7.968.1.42.42,0,0,1,.216.811,14.412,14.412,0,0,1-8.513.322A.641.641,0,0,1,257.194,360.3Z" transform="translate(-224.173 -310.179)" fill="#372b7b"/>
        </g>
        <path id="Path_160" data-name="Path 160" d="M262.214,317.142a21.353,21.353,0,0,0-6.207-3.422c-2.373-.78-4.589-.5-6.986-.748a1.117,1.117,0,0,1-.284-2.172c4.9-1.752,11.208,1.331,14.377,5.135C263.625,316.547,262.934,317.7,262.214,317.142Z" transform="translate(-213.964 -308.203)" fill="#fff"/>
        <path id="Path_161" data-name="Path 161" d="M268.817,314.327c-2.092,0-2.095-3.364,0-3.364S270.912,314.327,268.817,314.327Z" transform="translate(-238.937 -308.229)" fill="#fff"/>
      </g>
    </g>
  </g>
</svg>
